HIERARCHY
ROOT Hips
{
  OFFSET 57.8838 95.319 338.509
  CHANNELS 6 Xposition Yposition Zposition Zrotation Xrotation Yrotation
  JOINT LeftUpLeg
  {
    OFFSET 8.64259 1.95398 -2.38835
    CHANNELS 3 Zrotation Xrotation Yrotation
    JOINT LeftLeg
    {
      OFFSET 43.7702 0 0
      CHANNELS 3 Zrotation Xrotation Yrotation
      JOINT LeftFoot
      {
        OFFSET 40.6238 0 0
        CHANNELS 3 Zrotation Xrotation Yrotation
        JOINT LeftToeBase
        {
          OFFSET 12.7242 0 0
          CHANNELS 3 Zrotation Xrotation Yrotation
          End Site
          {
            OFFSET 0 0 0
          }
        }
      }
    }
  }
  JOINT RightUpLeg
  {
    OFFSET -8.2249 1.95398 -2.59336
    CHANNELS 3 Zrotation Xrotation Yrotation
    JOINT RightLeg
    {
      OFFSET 43.5653 0 0
      CHANNELS 3 Zrotation Xrotation Yrotation
      JOINT RightFoot
      {
        OFFSET 40.6238 0 0
        CHANNELS 3 Zrotation Xrotation Yrotation
        JOINT RightToeBase
        {
          OFFSET 12.7242 0 0
          CHANNELS 3 Zrotation Xrotation Yrotation
          End Site
          {
            OFFSET 0 0 0
          }
        }
      }
    }
  }
  JOINT Spine
  {
    OFFSET 0.165834 0.87714 6.61349
    CHANNELS 3 Zrotation Xrotation Yrotation
    JOINT Spine1
    {
      OFFSET 7.38963 1.71661e-005 0
      CHANNELS 3 Zrotation Xrotation Yrotation
      JOINT Spine2
      {
        OFFSET 11.9445 1.14441e-005 0
        CHANNELS 3 Zrotation Xrotation Yrotation
        JOINT Spine3
        {
          OFFSET 14.7254 4.19617e-005 0
          CHANNELS 3 Zrotation Xrotation Yrotation
          JOINT Spine4
          {
            OFFSET 10.9679 0 0
            CHANNELS 3 Zrotation Xrotation Yrotation
            JOINT RightShoulder
            {
              OFFSET 2.46616 -1.6653 3.69651
              CHANNELS 3 Zrotation Xrotation Yrotation
              JOINT RightArm
              {
                OFFSET 13.0012 0 0
                CHANNELS 3 Zrotation Xrotation Yrotation
                JOINT RightForeArm
                {
                  OFFSET 28.7848 1.62311e-005 0
                  CHANNELS 3 Zrotation Xrotation Yrotation
                  JOINT RightHand
                  {
                    OFFSET 26.5688 1.62095e-005 0
                    CHANNELS 3 Zrotation Xrotation Yrotation
                    End Site
                    {
                      OFFSET 0 0 0
                    }
                  }
                }
              }
            }
            JOINT LeftShoulder
            {
              OFFSET 2.38034 -1.29275 -3.7523
              CHANNELS 3 Zrotation Xrotation Yrotation
              JOINT LeftArm
              {
                OFFSET 16.3182 6.07031e-005 0
                CHANNELS 3 Zrotation Xrotation Yrotation
                JOINT LeftForeArm
                {
                  OFFSET 27.0901 0 0
                  CHANNELS 3 Zrotation Xrotation Yrotation
                  JOINT LeftHand
                  {
                    OFFSET 24.5451 1.51738e-005 0
                    CHANNELS 3 Zrotation Xrotation Yrotation
                    End Site
                    {
                      OFFSET 0 0 0
                    }
                  }
                }
              }
            }
            JOINT Neck
            {
              OFFSET 5.0226 -0.0266342 0
              CHANNELS 3 Zrotation Xrotation Yrotation
              JOINT Head
              {
                OFFSET 6.69364 2.86102e-005 0
                CHANNELS 3 Zrotation Xrotation Yrotation
                End Site
                {
                  OFFSET 0 0 0
                }
              }
            }
          }
        }
      }
    }
  }
}
MOTION
Frames:	9
Frame Time:	0.0416667
101.302 95.8525 -60.5908 -111.057 -65.5782 -108.609 -178.087 16.5802 86.8368 -55.6651 9.4661 2.95345 55.0739 1.18005 6.70592 51.2725 11.3594 12.7432 172.642 5.31179 95.5271 -35.1866 -2.34905 0.33974 75.6678 -3.01597 8.9787 26.9151 2.31554 2.03579 -0.0960259 7.78897 -90.4374 11.2925 -0.394671 -0.830923 -0.378649 -0.430879 -0.812756 -22.9118 -0.126725 -0.911124 -2.89918 -0.126725 -0.91112 97.7996 -50.9597 -88.6978 28.7353 -9.12911 -8.02865 -2.53811 -13.3788 -21.4428 -10.3814 -0.388549 -0.789951 -81.2535 -54.0462 92.1585 -32.9799 -30.352 -9.96998 5.09872 72.7356 0.0273419 -4.07011 0.0886071 -11.0862 0.30902 -4.68784 -6.48522 -21.0525 -4.59646 5.01457 
96.8172 95.9371 -53.5485 -106.941 -62.5219 -104.633 179.214 17.6386 87.8527 -29.0342 7.73587 1.17841 53.5902 0.945442 7.6844 48.9956 10.129 12.9585 172.923 -0.967335 95.6629 -31.2042 -2.92972 -0.501598 75.7909 -5.54744 9.93027 30.1672 -1.86241 2.9958 0.0628453 7.78743 -90.4051 11.298 -0.0636053 -0.800366 -0.373176 -0.098785 -0.796794 -22.9065 0.179866 -0.782482 -2.89381 0.179856 -0.782491 97.8764 -50.0303 -88.6586 27.6524 -10.2025 -11.2041 -2.84545 -9.94398 -25.5492 -12.3884 -0.380507 -1.65416 -81.0984 -54.6064 92.4153 -29.4915 -33.6753 -2.07519 5.37398 71.6909 0.0285818 -4.96602 0.0698342 -9.02103 0.937105 -4.44535 -5.96548 -20.7846 -4.42445 5.29636 
92.4081 95.5308 -46.5141 -102.691 -59.4515 -99.3539 175.603 18.3363 90.1387 -10.0887 14.4022 2.99311 56.0928 -0.360608 4.90598 41.5427 6.04468 12.0502 173.04 -6.85072 95.9775 -27.7774 -5.1433 -0.732775 73.9125 -7.37014 11.1091 34.1074 -6.9037 2.01144 0.183501 7.76691 -90.4836 11.3396 0.139863 -0.976914 -0.331756 0.0967161 -0.982118 -22.8644 0.42696 -0.889736 -2.85181 0.426975 -0.889735 97.4931 -50.3511 -89.2236 25.845 -10.9266 -13.3687 -4.91828 -10.8862 -29.5131 -14.1749 -0.554748 -0.666506 -81.0153 -55.1919 92.5671 -28.3237 -34.8832 0.845044 6.12123 72.2421 0.0308951 -9.75344 0.417445 -11.0688 0.29284 -4.37225 -6.44833 -19.7485 -4.2677 5.28282 
87.6489 94.3402 -38.3733 -100.292 -54.6386 -96.8444 175.293 18.4055 91.0602 -10.9176 17.8376 3.764 55.702 -1.683 2.86896 41.989 6.11043 10.0529 173.409 -10.4628 94.2233 -30.6281 -9.96881 -2.23013 71.5223 -7.12556 11.6715 38.1358 -12.2694 0.724551 0.411254 7.73952 -90.3793 11.3967 0.641327 -0.82007 -0.274399 0.604625 -0.84751 -22.8096 0.858138 -0.589416 -2.79696 0.858129 -0.58942 96.745 -50.5068 -90.3638 26.3506 -10.6136 -12.2535 -5.32609 -11.3359 -30.3488 -15.8408 -0.66149 -0.347812 -80.5944 -55.9558 93.2046 -26.9395 -34.2469 0.525772 5.43124 72.2269 0.0307603 -10.518 0.417391 -10.8125 -0.922208 -4.88948 -6.38225 -19.8396 -4.86819 5.2545 
82.7661 93.5433 -29.5096 -102.096 -52.1241 -100.921 175.488 18.919 87.7255 -24.5636 19.8536 2.87365 53.6656 -4.86296 7.88518 36.7819 3.31514 4.18954 171.916 -10.1831 87.1154 -41.6329 -12.2232 -3.4901 64.637 2.39601 15.8456 35.7284 -9.58356 -2.62846 0.255341 7.91695 -89.8909 11.0386 0.558918 0.161997 -0.632215 0.565503 0.137237 -23.168 0.484381 0.322485 -3.15532 0.484398 0.322491 97.2622 -51.0826 -89.5107 28.2691 -10.1245 -10.6689 -4.0356 -12.6129 -26.0217 -13.6546 -0.564104 -0.403507 -80.4661 -55.9996 93.3888 -27.133 -32.8456 -3.7503 4.69063 70.8849 0.0269392 -6.948 0.191818 -10.0067 -1.40181 -5.50363 -5.57375 -19.1624 -5.25897 3.09915 
78.3189 93.1278 -22.3487 -101.67 -48.7434 -102.148 179.133 16.9305 85.5096 -32.0667 17.6112 1.27542 59.2842 -0.000866915 11.062 38.2037 3.87532 1.65507 172.022 0.798319 90.042 -61.6929 -12.1869 -3.11199 55.0643 11.0105 10.7355 22.3789 9.37579 -4.00394 0.0334595 8.03432 -89.5349 10.8037 0.28139 0.901291 -0.867513 0.320784 0.888031 -23.4003 -0.00248295 0.94419 -3.38761 -0.00247868 0.944183 97.1378 -50.7319 -89.7358 31.1796 -10.6387 -10.3011 -2.15937 -15.3165 -19.04 -10.1218 -0.409993 -0.46381 -81.3189 -55.8236 92.1703 -28.3551 -30.7625 -11.5902 4.09928 66.8993 0.0195289 -4.45337 0.0616102 -9.37539 -1.49723 -5.91529 -3.64336 -17.6561 -5.71545 1.94964 
73.4781 94.0965 -16.0634 -101.24 -45.5061 -100.541 -178.525 11.1021 86.4828 -32.1945 15.2586 0.825656 62.3934 2.91368 11.7846 41.1852 5.11729 1.48516 171.781 12.6555 87.3365 -73.3175 -9.66015 -2.32368 56.9618 7.8318 8.5709 21.4085 10.531 -3.10889 -0.349494 8.12599 -89.5881 10.6245 -0.506456 0.864544 -1.04662 -0.467907 0.885991 -23.5811 -0.742869 0.672369 -3.5685 -0.74288 0.672375 97.1728 -50.9532 -89.6603 32.8381 -11.537 -9.07591 -2.41462 -17.0794 -18.053 -7.19378 -0.424832 1.79648 -81.384 -55.0615 92.0321 -29.5614 -26.8488 -20.5519 2.65942 61.3389 0.0720287 -3.17541 -0.00327169 -8.70237 -1.41413 -5.50304 -2.53883 -16.7445 -5.49132 2.47684 
68.4735 95.1513 -10.345 -99.7352 -43.3196 -98.0158 -176.649 5.04086 87.7384 -28.9615 13.3026 0.463763 64.2208 4.15262 11.0253 42.8825 5.90183 2.32751 169.314 20.0585 92.9509 -66.2564 -10.2758 0.189069 61.5636 1.22087 7.91996 27.4661 2.10634 -4.69791 -0.829312 8.03426 -89.7407 10.8103 -1.53158 0.658148 -0.859981 -1.50115 0.724928 -23.4022 -1.65856 0.167302 -3.38957 -1.65856 0.167294 97.0611 -51.3459 -89.7929 33.697 -11.6595 -6.30324 -3.40013 -17.5621 -19.498 -7.91928 -0.299863 -0.822497 -81.0847 -53.318 92.3609 -30.5716 -23.4011 -27.911 1.61521 57.8484 -0.784148 -0.100863 -0.154161 -7.57859 -0.123032 -4.97586 -2.35975 -16.2542 -4.91466 2.25925 
63.3637 95.9099 -5.3501 -97.1873 -39.8678 -95.9413 -175.696 -0.0216008 87.3581 -24.0692 11.9142 0.0723789 63.6103 3.6103 10.5322 45.0436 7.19846 5.8119 168.724 22.172 95.0846 -43.4376 -2.53434 3.21093 64.4902 -1.51182 10.6712 30.4664 -2.24953 -3.89161 -1.02393 7.85597 -89.8314 11.1677 -1.95961 0.527075 -0.501957 -1.93451 0.612832 -23.049 -2.02739 -0.086481 -3.03636 -2.0274 -0.086482 97.2029 -51.5164 -89.5601 34.4227 -9.23495 -4.47004 -2.66131 -15.8823 -19.2147 -8.14805 -0.329879 -0.503214 -81.0583 -52.6471 92.3607 -27.8374 -18.3338 -32.6618 5.04706 50.9762 -9.53654 1.74221 -0.242308 -8.622 2.22601 -4.8669 -2.36668 -14.4898 -4.75642 2.73483 
